<?xml version="1.0" standalone="no"?>
<!DOCTYPE svg PUBLIC "-//W3C//DTD SVG 20010904//EN"
 "http://www.w3.org/TR/2001/REC-SVG-20010904/DTD/svg10.dtd">
<svg version="1.0" xmlns="http://www.w3.org/2000/svg"
 width="533.000000pt" height="1600.000000pt" viewBox="0 0 533.000000 1600.000000"
 preserveAspectRatio="xMidYMid meet">

<g transform="translate(0.000000,1600.000000) scale(0.100000,-0.100000)"
fill="#000000" stroke="none">
<path d="M10 8000 l0 -8000 2660 0 2660 0 0 8000 0 8000 -2660 0 -2660 0 0
-8000z m3888 7138 l3 -27 -102 -3 -103 -3 67 -44 c37 -24 64 -47 62 -52 -3 -4
-33 -25 -68 -46 l-62 -38 103 -3 103 -3 -3 -27 -3 -27 -147 -3 -148 -3 0 36
c0 32 5 39 60 75 34 21 60 42 58 47 -1 4 -29 25 -60 45 -53 34 -58 41 -58 73
l0 36 148 -3 147 -3 3 -27z m-248 -383 l0 -45 125 0 125 0 0 -30 0 -30 -125 0
-125 0 0 -45 c0 -41 -2 -45 -25 -45 l-25 0 0 120 0 120 25 0 c23 0 25 -4 25
-45z m-520 -208 c303 -79 537 -273 680 -562 128 -258 154 -537 79 -830 -77
-301 -319 -583 -606 -705 -138 -58 -229 -74 -418 -75 -147 0 -182 3 -255 23
-410 112 -704 434 -787 861 -20 105 -22 317 -4 421 82 465 433 818 887 890
104 16 317 5 424 -23z m-300 -2492 c531 -218 989 -407 1018 -420 l52 -24 0
-308 0 -308 -1012 -417 c-557 -229 -1021 -420 -1030 -423 -17 -7 -18 12 -18
318 0 300 1 325 18 332 9 3 314 115 677 247 363 132 666 244 674 248 10 5 5
10 -15 17 -66 24 -1244 453 -1296 473 l-58 21 0 326 c0 256 3 324 13 320 6 -2
446 -183 977 -402z m301 -1848 c301 -78 538 -275 679 -562 93 -188 127 -356
117 -570 -14 -310 -125 -558 -342 -763 -139 -131 -295 -215 -480 -258 -120
-28 -368 -26 -488 4 -294 74 -547 275 -687 548 -48 93 -93 229 -111 334 -16
97 -16 304 0 400 81 466 432 818 887 890 106 16 317 5 425 -23z m769 -2682 l0
-285 -620 0 c-601 0 -623 -1 -682 -21 -178 -60 -298 -234 -300 -439 -3 -219
108 -385 301 -450 58 -19 83 -20 681 -20 l620 0 0 -285 0 -285 -1030 0 -1030
0 0 285 0 285 140 0 140 0 -47 43 c-149 136 -246 342 -268 567 -7 73 7 215 30
305 21 83 94 229 149 297 114 142 294 246 484 278 26 4 359 8 740 9 l692 1 0
-285z m-996 -2430 c100 -242 234 -563 296 -713 l113 -273 28 27 c96 92 155
329 130 530 -18 150 -67 269 -168 412 l-44 62 28 38 c116 155 247 322 254 322
11 0 111 -118 156 -185 89 -133 170 -330 208 -505 24 -114 30 -354 11 -475
-62 -408 -282 -712 -615 -855 -289 -124 -639 -115 -916 23 -192 96 -366 270
-462 462 -81 162 -116 316 -116 515 0 212 33 370 110 525 127 253 377 445 663
510 41 9 80 19 85 20 6 2 20 3 33 2 21 -2 42 -48 206 -442z m996 -2680 l0
-925 -1340 0 -1340 0 0 285 0 285 1075 0 1075 0 0 640 0 640 265 0 265 0 0
-925z"/>
<path d="M2741 14005 c-223 -51 -391 -217 -436 -430 -18 -88 -18 -132 0 -220
33 -158 135 -289 276 -359 396 -195 859 65 859 482 0 239 -144 435 -373 507
-102 33 -236 41 -326 20z"/>
<path d="M2740 9665 c-147 -33 -300 -139 -368 -253 -161 -275 -64 -625 209
-755 404 -193 859 63 859 483 0 239 -143 432 -373 506 -103 32 -234 40 -327
19z"/>
<path d="M2475 4886 c-142 -95 -215 -231 -215 -395 1 -316 222 -532 561 -549
72 -3 108 -1 113 6 8 13 -384 964 -399 969 -6 2 -33 -12 -60 -31z"/>
</g>
</svg>
